<?xml version="1.0" encoding="utf-8"?>
<!-- Generator: Adobe Illustrator 19.2.0, SVG Export Plug-In . SVG Version: 6.00 Build 0)  -->
<svg version="1.1" id="Ebene_1" xmlns="http://www.w3.org/2000/svg" xmlns:xlink="http://www.w3.org/1999/xlink" x="0px" y="0px"
	 viewBox="0 0 500 500" style="enable-background:new 0 0 500 500;" xml:space="preserve">
<style type="text/css">
	.st0{fill:#1E1E1C;}
	.st1{fill:#FF8282;}
	.st2{fill:#FF645F;}
	.st3{fill:#8CDBA6;}
	.st4{fill:#21D68F;}
	.st5{fill:#00ABFA;}
	.st6{fill:#BD3B38;}
	.st7{fill:#00B05C;}
	.st8{fill:#78CCC7;}
	.st9{fill:#96DBD6;}
	.st10{fill:#40A6A6;}
	.st11{fill:#FFFFFF;}
	.st12{clip-path:url(#SVGID_2_);fill:#D6D7D7;}
	.st13{clip-path:url(#SVGID_4_);fill:#D6D7D7;}
	.st14{clip-path:url(#SVGID_6_);fill:#D6D7D7;}
	.st15{clip-path:url(#SVGID_8_);fill:#D6D7D7;}
	.st16{clip-path:url(#SVGID_10_);fill:#D6D7D7;}
	.st17{clip-path:url(#SVGID_12_);fill:#D6D7D7;}
	.st18{clip-path:url(#SVGID_14_);fill:#D6D7D7;}
	.st19{clip-path:url(#SVGID_16_);fill:#D6D7D7;}
	.st20{clip-path:url(#SVGID_18_);fill:#D6D7D7;}
	.st21{clip-path:url(#SVGID_20_);fill:#D6D7D7;}
	.st22{clip-path:url(#SVGID_22_);fill:#D6D7D7;}
	.st23{clip-path:url(#SVGID_24_);fill:#D6D7D7;}
	.st24{clip-path:url(#SVGID_26_);fill:#D6D7D7;}
	.st25{clip-path:url(#SVGID_28_);fill:#D6D7D7;}
	.st26{clip-path:url(#SVGID_30_);fill:#D6D7D7;}
	.st27{clip-path:url(#SVGID_32_);fill:#D6D7D7;}
	.st28{clip-path:url(#SVGID_34_);fill:#D6D7D7;}
	.st29{clip-path:url(#SVGID_36_);fill:#D6D7D7;}
	.st30{clip-path:url(#SVGID_38_);fill:#D6D7D7;}
	.st31{clip-path:url(#SVGID_40_);fill:#D6D7D7;}
	.st32{clip-path:url(#SVGID_42_);fill:#D6D7D7;}
	.st33{clip-path:url(#SVGID_44_);fill:#D6D7D7;}
	.st34{clip-path:url(#SVGID_46_);fill:#D6D7D7;}
	.st35{clip-path:url(#SVGID_48_);fill:#D6D7D7;}
	.st36{clip-path:url(#SVGID_50_);fill:#D6D7D7;}
	.st37{clip-path:url(#SVGID_52_);fill:#D6D7D7;}
	.st38{clip-path:url(#SVGID_54_);fill:#D6D7D7;}
	.st39{clip-path:url(#SVGID_56_);fill:#D6D7D7;}
	.st40{clip-path:url(#SVGID_58_);fill:#D6D7D7;}
	.st41{clip-path:url(#SVGID_60_);fill:#D6D7D7;}
	.st42{clip-path:url(#SVGID_62_);fill:#D6D7D7;}
	.st43{clip-path:url(#SVGID_64_);fill:#D6D7D7;}
	.st44{clip-path:url(#SVGID_66_);fill:#D6D7D7;}
	.st45{clip-path:url(#SVGID_68_);fill:#D6D7D7;}
	.st46{clip-path:url(#SVGID_70_);fill:#D6D7D7;}
	.st47{clip-path:url(#SVGID_72_);fill:#D6D7D7;}
	.st48{clip-path:url(#SVGID_74_);fill:#D6D7D7;}
	.st49{clip-path:url(#SVGID_76_);fill:#D6D7D7;}
	.st50{clip-path:url(#SVGID_78_);fill:#D6D7D7;}
	.st51{clip-path:url(#SVGID_80_);fill:#D6D7D7;}
	.st52{clip-path:url(#SVGID_82_);fill:#D6D7D7;}
	.st53{clip-path:url(#SVGID_84_);fill:#D6D7D7;}
	.st54{clip-path:url(#SVGID_86_);fill:#D6D7D7;}
	.st55{clip-path:url(#SVGID_88_);fill:#D6D7D7;}
	.st56{clip-path:url(#SVGID_90_);fill:#D6D7D7;}
	.st57{clip-path:url(#SVGID_92_);fill:#D6D7D7;}
	.st58{clip-path:url(#SVGID_94_);fill:#D6D7D7;}
	.st59{clip-path:url(#SVGID_96_);fill:#D6D7D7;}
	.st60{clip-path:url(#SVGID_98_);fill:#D6D7D7;}
	.st61{clip-path:url(#SVGID_100_);fill:#D6D7D7;}
	.st62{clip-path:url(#SVGID_102_);fill:#D6D7D7;}
	.st63{clip-path:url(#SVGID_104_);fill:#D6D7D7;}
	.st64{clip-path:url(#SVGID_106_);fill:#D6D7D7;}
	.st65{clip-path:url(#SVGID_108_);fill:#D6D7D7;}
	.st66{clip-path:url(#SVGID_110_);fill:#D6D7D7;}
	.st67{clip-path:url(#SVGID_112_);fill:#D6D7D7;}
	.st68{clip-path:url(#SVGID_114_);fill:#D6D7D7;}
	.st69{clip-path:url(#SVGID_116_);fill:#D6D7D7;}
	.st70{clip-path:url(#SVGID_118_);fill:#D6D7D7;}
	.st71{clip-path:url(#SVGID_120_);fill:#D6D7D7;}
	.st72{clip-path:url(#SVGID_122_);fill:#D6D7D7;}
	.st73{clip-path:url(#SVGID_124_);fill:#D6D7D7;}
	.st74{clip-path:url(#SVGID_126_);fill:#D6D7D7;}
	.st75{clip-path:url(#SVGID_128_);fill:#D6D7D7;}
	.st76{clip-path:url(#SVGID_130_);fill:#D6D7D7;}
	.st77{clip-path:url(#SVGID_132_);fill:#D6D7D7;}
	.st78{clip-path:url(#SVGID_134_);fill:#D6D7D7;}
	.st79{clip-path:url(#SVGID_136_);fill:#D6D7D7;}
	.st80{clip-path:url(#SVGID_138_);fill:#D6D7D7;}
	.st81{clip-path:url(#SVGID_140_);fill:#D6D7D7;}
	.st82{clip-path:url(#SVGID_142_);fill:#D6D7D7;}
	.st83{clip-path:url(#SVGID_144_);fill:#D6D7D7;}
	.st84{clip-path:url(#SVGID_146_);fill:#D6D7D7;}
	.st85{clip-path:url(#SVGID_148_);fill:#D6D7D7;}
	.st86{clip-path:url(#SVGID_150_);fill:#D6D7D7;}
	.st87{clip-path:url(#SVGID_152_);fill:#D6D7D7;}
	.st88{clip-path:url(#SVGID_154_);fill:#D6D7D7;}
	.st89{clip-path:url(#SVGID_156_);fill:#D6D7D7;}
	.st90{clip-path:url(#SVGID_158_);fill:#D6D7D7;}
	.st91{clip-path:url(#SVGID_160_);fill:#D6D7D7;}
	.st92{clip-path:url(#SVGID_162_);fill:#D6D7D7;}
	.st93{clip-path:url(#SVGID_164_);fill:#D6D7D7;}
	.st94{clip-path:url(#SVGID_166_);fill:#D6D7D7;}
	.st95{clip-path:url(#SVGID_168_);fill:#D6D7D7;}
	.st96{clip-path:url(#SVGID_170_);fill:#D6D7D7;}
	.st97{clip-path:url(#SVGID_172_);fill:#D6D7D7;}
	.st98{clip-path:url(#SVGID_174_);fill:#D6D7D7;}
	.st99{clip-path:url(#SVGID_176_);fill:#D6D7D7;}
	.st100{clip-path:url(#SVGID_178_);fill:#D6D7D7;}
	.st101{clip-path:url(#SVGID_180_);fill:#D6D7D7;}
	.st102{clip-path:url(#SVGID_182_);fill:#D6D7D7;}
	.st103{clip-path:url(#SVGID_184_);fill:#D6D7D7;}
	.st104{clip-path:url(#SVGID_186_);fill:#D6D7D7;}
	.st105{clip-path:url(#SVGID_188_);fill:#D6D7D7;}
	.st106{clip-path:url(#SVGID_190_);fill:#D6D7D7;}
	.st107{clip-path:url(#SVGID_192_);fill:#D6D7D7;}
	.st108{clip-path:url(#SVGID_194_);fill:#D6D7D7;}
	.st109{clip-path:url(#SVGID_196_);fill:#D6D7D7;}
	.st110{clip-path:url(#SVGID_198_);fill:#D6D7D7;}
	.st111{clip-path:url(#SVGID_200_);fill:#D6D7D7;}
	.st112{clip-path:url(#SVGID_202_);fill:#D6D7D7;}
	.st113{clip-path:url(#SVGID_204_);fill:#D6D7D7;}
	.st114{clip-path:url(#SVGID_206_);fill:#D6D7D7;}
	.st115{clip-path:url(#SVGID_208_);fill:#D6D7D7;}
	.st116{clip-path:url(#SVGID_210_);fill:#D6D7D7;}
	.st117{clip-path:url(#SVGID_212_);fill:#D6D7D7;}
	.st118{clip-path:url(#SVGID_214_);fill:#D6D7D7;}
	.st119{clip-path:url(#SVGID_216_);fill:#D6D7D7;}
	.st120{clip-path:url(#SVGID_218_);fill:#D6D7D7;}
	.st121{clip-path:url(#SVGID_220_);fill:#D6D7D7;}
	.st122{clip-path:url(#SVGID_222_);fill:#D6D7D7;}
	.st123{clip-path:url(#SVGID_224_);fill:#D6D7D7;}
	.st124{clip-path:url(#SVGID_226_);fill:#D6D7D7;}
	.st125{clip-path:url(#SVGID_228_);fill:#D6D7D7;}
	.st126{clip-path:url(#SVGID_230_);fill:#D6D7D7;}
	.st127{clip-path:url(#SVGID_232_);fill:#D6D7D7;}
	.st128{clip-path:url(#SVGID_234_);fill:#D6D7D7;}
	.st129{clip-path:url(#SVGID_236_);fill:#D6D7D7;}
	.st130{clip-path:url(#SVGID_238_);fill:#D6D7D7;}
	.st131{clip-path:url(#SVGID_240_);fill:#D6D7D7;}
	.st132{clip-path:url(#SVGID_242_);fill:#D6D7D7;}
	.st133{clip-path:url(#SVGID_244_);fill:#D6D7D7;}
	.st134{clip-path:url(#SVGID_246_);fill:#D6D7D7;}
	.st135{clip-path:url(#SVGID_248_);fill:#D6D7D7;}
	.st136{clip-path:url(#SVGID_250_);fill:#D6D7D7;}
	.st137{clip-path:url(#SVGID_252_);fill:#D6D7D7;}
	.st138{clip-path:url(#SVGID_254_);fill:#D6D7D7;}
	.st139{clip-path:url(#SVGID_256_);fill:#D6D7D7;}
	.st140{clip-path:url(#SVGID_258_);fill:#D6D7D7;}
	.st141{clip-path:url(#SVGID_260_);fill:#D6D7D7;}
	.st142{clip-path:url(#SVGID_262_);fill:#D6D7D7;}
	.st143{clip-path:url(#SVGID_264_);fill:#D6D7D7;}
	.st144{clip-path:url(#SVGID_266_);fill:#D6D7D7;}
	.st145{clip-path:url(#SVGID_268_);fill:#D6D7D7;}
	.st146{clip-path:url(#SVGID_270_);fill:#D6D7D7;}
	.st147{clip-path:url(#SVGID_272_);fill:#D6D7D7;}
	.st148{clip-path:url(#SVGID_274_);fill:#D6D7D7;}
	.st149{clip-path:url(#SVGID_276_);fill:#D6D7D7;}
	.st150{clip-path:url(#SVGID_278_);fill:#D6D7D7;}
	.st151{clip-path:url(#SVGID_280_);fill:#D6D7D7;}
	.st152{clip-path:url(#SVGID_282_);fill:#D6D7D7;}
	.st153{clip-path:url(#SVGID_284_);fill:#D6D7D7;}
	.st154{clip-path:url(#SVGID_286_);fill:#D6D7D7;}
	.st155{clip-path:url(#SVGID_288_);fill:#D6D7D7;}
	.st156{clip-path:url(#SVGID_290_);fill:#D6D7D7;}
	.st157{clip-path:url(#SVGID_292_);fill:#D6D7D7;}
	.st158{clip-path:url(#SVGID_294_);fill:#D6D7D7;}
	.st159{clip-path:url(#SVGID_296_);fill:#D6D7D7;}
	.st160{clip-path:url(#SVGID_298_);fill:#D6D7D7;}
	.st161{clip-path:url(#SVGID_300_);fill:#D6D7D7;}
	.st162{clip-path:url(#SVGID_302_);fill:#D6D7D7;}
	.st163{clip-path:url(#SVGID_304_);fill:#D6D7D7;}
	.st164{clip-path:url(#SVGID_306_);fill:#D6D7D7;}
	.st165{clip-path:url(#SVGID_308_);fill:#D6D7D7;}
	.st166{clip-path:url(#SVGID_310_);fill:#D6D7D7;}
	.st167{clip-path:url(#SVGID_312_);fill:#D6D7D7;}
	.st168{clip-path:url(#SVGID_314_);fill:#D6D7D7;}
	.st169{clip-path:url(#SVGID_316_);fill:#D6D7D7;}
	.st170{clip-path:url(#SVGID_318_);fill:#D6D7D7;}
	.st171{clip-path:url(#SVGID_320_);fill:#D6D7D7;}
	.st172{clip-path:url(#SVGID_322_);fill:#D6D7D7;}
	.st173{clip-path:url(#SVGID_324_);fill:#D6D7D7;}
	.st174{clip-path:url(#SVGID_326_);fill:#D6D7D7;}
	.st175{clip-path:url(#SVGID_328_);fill:#D6D7D7;}
	.st176{clip-path:url(#SVGID_330_);fill:#D6D7D7;}
	.st177{clip-path:url(#SVGID_332_);fill:#D6D7D7;}
	.st178{clip-path:url(#SVGID_334_);fill:#D6D7D7;}
	.st179{clip-path:url(#SVGID_336_);fill:#D6D7D7;}
	.st180{clip-path:url(#SVGID_338_);fill:#D6D7D7;}
	.st181{clip-path:url(#SVGID_340_);fill:#D6D7D7;}
	.st182{clip-path:url(#SVGID_342_);fill:#D6D7D7;}
	.st183{clip-path:url(#SVGID_344_);fill:#D6D7D7;}
	.st184{clip-path:url(#SVGID_346_);fill:#D6D7D7;}
	.st185{clip-path:url(#SVGID_348_);fill:#D6D7D7;}
	.st186{clip-path:url(#SVGID_350_);fill:#D6D7D7;}
	.st187{clip-path:url(#SVGID_352_);fill:#D6D7D7;}
	.st188{clip-path:url(#SVGID_354_);fill:#D6D7D7;}
	.st189{clip-path:url(#SVGID_356_);fill:#D6D7D7;}
	.st190{clip-path:url(#SVGID_358_);fill:#D6D7D7;}
	.st191{clip-path:url(#SVGID_360_);fill:#D6D7D7;}
	.st192{clip-path:url(#SVGID_362_);fill:#D6D7D7;}
	.st193{clip-path:url(#SVGID_364_);fill:#D6D7D7;}
	.st194{clip-path:url(#SVGID_366_);fill:#D6D7D7;}
	.st195{clip-path:url(#SVGID_368_);fill:#D6D7D7;}
	.st196{clip-path:url(#SVGID_370_);fill:#D6D7D7;}
	.st197{clip-path:url(#SVGID_372_);fill:#D6D7D7;}
	.st198{clip-path:url(#SVGID_374_);fill:#D6D7D7;}
	.st199{clip-path:url(#SVGID_376_);fill:#D6D7D7;}
	.st200{clip-path:url(#SVGID_378_);fill:#D6D7D7;}
	.st201{clip-path:url(#SVGID_380_);fill:#D6D7D7;}
	.st202{clip-path:url(#SVGID_382_);fill:#D6D7D7;}
	.st203{clip-path:url(#SVGID_384_);fill:#D6D7D7;}
	.st204{clip-path:url(#SVGID_386_);fill:#D6D7D7;}
	.st205{clip-path:url(#SVGID_388_);fill:#D6D7D7;}
	.st206{clip-path:url(#SVGID_390_);fill:#D6D7D7;}
	.st207{clip-path:url(#SVGID_392_);fill:#D6D7D7;}
	.st208{clip-path:url(#SVGID_394_);fill:#D6D7D7;}
	.st209{clip-path:url(#SVGID_396_);fill:#D6D7D7;}
	.st210{clip-path:url(#SVGID_398_);fill:#D6D7D7;}
	.st211{clip-path:url(#SVGID_400_);fill:#D6D7D7;}
	.st212{clip-path:url(#SVGID_402_);fill:#D6D7D7;}
	.st213{fill:#D6D7D7;}
	.st214{clip-path:url(#SVGID_404_);fill:#D6D7D7;}
	.st215{clip-path:url(#SVGID_406_);fill:#D6D7D7;}
	.st216{clip-path:url(#SVGID_408_);fill:#D6D7D7;}
	.st217{clip-path:url(#SVGID_410_);fill:#D6D7D7;}
	.st218{clip-path:url(#SVGID_412_);fill:#D6D7D7;}
	.st219{clip-path:url(#SVGID_414_);fill:#D6D7D7;}
	.st220{clip-path:url(#SVGID_416_);fill:#D6D7D7;}
	.st221{clip-path:url(#SVGID_418_);fill:#D6D7D7;}
	.st222{clip-path:url(#SVGID_420_);fill:#D6D7D7;}
	.st223{clip-path:url(#SVGID_422_);fill:#D6D7D7;}
	.st224{clip-path:url(#SVGID_424_);fill:#D6D7D7;}
	.st225{clip-path:url(#SVGID_426_);fill:#D6D7D7;}
	.st226{fill:none;}
	.st227{fill:#FFFFFF;stroke:#000000;stroke-width:5;stroke-miterlimit:10;}
	.st228{fill:#FFFFFF;stroke:#1A1A1A;stroke-width:5;stroke-miterlimit:10;}
	.st229{fill:#1A1A1A;stroke:#1A1A1A;stroke-width:5;stroke-miterlimit:10;}
	.st230{fill:#1A1A1A;}
</style>
<g>
	<g>
		<polygon class="st1" points="164.2,94.2 164.2,96.5 164.2,243.2 176.5,243.2 179.9,243.2 182.8,243.2 182.8,94.2 		"/>
		<g>
			<path class="st2" d="M238.1,257.1c1.3,0,3-1.2,3-2.4V80.2c0-1.3-1.7-2.3-3-2.3h-58.2c-1.3,0-1.7,0.5-1.7,1.2v3.5v11.6
				c0,1.3,0.4,2.3,1.7,2.3h39.5c1.3,0,3,1,3,2.3v137.2c0,1.3-1.7,2.4-3,2.4h-39.5c-1.3,0-1.7,0.4-1.7,1.1v3.5v11.6
				c0,1.3,0.4,2.4,1.7,2.4L238.1,257.1L238.1,257.1z"/>
		</g>
		<polygon class="st3" points="264.3,94.2 264.3,96.5 264.3,243.2 279.9,243.2 282.9,243.2 282.9,94.2 		"/>
		<g>
			<path class="st4" d="M280.6,257v-18.6c25.6,0,43.5-31.8,43.5-70.9c0-39.1-17.9-70.9-43.5-70.9V77.9c34.9,0,62.1,40.2,62.1,89.6
				C342.7,216.9,315.5,257,280.6,257"/>
			<path class="st5" d="M87.4,199.8v25.7v8.3c0,13.9,8.9,23.4,23,23.4h4h11.4h13.4c0.6,0,1.7-1.2,1.7-2.4v-14c0-1.3-1.6-2.2-2.9-2.2
				h-13.4h-6.8h-4.2c-6,0-7.6-2.8-7.6-9.7v-11v-15.2v-13.6c0-14-5.7-19.2-12.7-21.7c6.9-2.5,12.7-7.7,12.7-21.7v-9.7v-24.6v-5.8
				c0-6.8,1.3-8.8,7.6-8.8h5.3h6.7h13.6c0.6,0,1.7-1.1,1.7-2.3v-14c0-1.3-1.6-2.3-2.9-2.3h-11.2h-10.6h-5.9c-14.1,0-23,9.1-23,22.7
				v7.3v30.4c0,0-0.5,7-0.8,9.4c-0.9,6.3-8.6,11.7-13.4,11.6h-7.3c-1.3,0-1.8,1-1.8,2.3v14c0,1.3,0.5,2.4,1.8,2.4h6.7
				c6.1-0.1,13.8,5,14.4,12.7C87.2,192.9,87.4,199.8,87.4,199.8"/>
			<path class="st6" d="M179.9,77.9h-6.6h-7.4c-1.3,0-1.7,1-1.7,2.3v4.3v9.7v2.3h1.7h14h2.9v-2.3v-14v-2.3H179.9z"/>
			<path class="st6" d="M164.2,240.8v6.6v7.4c0,1.3,0.5,2.4,1.7,2.4h4.3h9.7h2.9v-2.4v-14v-2.2h-2.9h-14h-1.7L164.2,240.8
				L164.2,240.8z"/>
			<path class="st7" d="M279.9,77.9h-6.6H266c-1.3,0-1.7,1-1.7,2.3v4.3v9.7v2.3h1.7h14h3v-2.3v-14v-2.3H279.9z"/>
			<path class="st7" d="M264.3,240.8v6.6v7.4c0,1.3,0.4,2.4,1.7,2.4h4.3h9.7h3v-2.4v-14v-2.2h-3h-14h-1.7V240.8z"/>
			<path class="st8" d="M377.5,199.8v25.7v8.3c0,13.9,8.7,23.4,22.8,23.4h4h11.4h13.4c0.6,0,1.9-1.2,1.9-2.4v-14
				c0-1.3-1.8-2.2-3.1-2.2h-13.4h-6.8h-4.2c-6,0-7.4-2.6-7.4-9.4V225v-22.4v-13.6c0-4.5-1.3-8.6-2.4-10.9h-31.2
				c8.6,2.3,12.2,5.4,14,12.9C377.4,194.6,377.5,199.8,377.5,199.8"/>
			<path class="st8" d="M376.2,147.8c-1.8,6.1-5.8,9.3-13,11.6h29.3c1.8-4.7,3.6-7.8,3.6-13.9v-9.7v-24.6v-5.8
				c0-6.8,1.2-8.8,7.4-8.8h5.3h6.7h13.7c0.6,0,1.9-1.1,1.9-2.3v-14c0-1.3-1.8-2.3-3.1-2.3h-11.2h-10.6h-5.9
				c-14.1,0-22.8,9.1-22.8,22.7v7.3v30.4C377.5,138.4,377.1,144.7,376.2,147.8"/>
			<path class="st9" d="M380.7,168.8c4.7,1.7,9.9,4.5,13.1,9.2H428c1.3,0,3.1-1.1,3.1-2.4v-14c0-1.3-1.8-2.3-3.1-2.3h-35.5
				C390.1,164,384.6,167.4,380.7,168.8"/>
			<path class="st10" d="M355.9,159.4c-1.3,0-1.6,1-1.6,2.3v14c0,1.3,0.3,2.4,1.6,2.4h6.7h31.2c-2.1-4.7-7.3-7.8-11-9.3
				c3.9-1.4,7.4-4.7,9.7-9.3h-29.3L355.9,159.4L355.9,159.4z"/>
		</g>
	</g>
	<g>
		<path d="M110.9,282.1c-1.8-1.2-3.1-1.6-4.7-1.6c-2.8,0-4.3,1.7-4.3,5.5v1.9h11.4v4.4h-11.4v24.8h-4.9v-24.8h-8.2V288h8.2v-1.8
			c0-7.1,3.4-10,9-10c2.7,0,4.5,0.7,6.1,1.7L110.9,282.1z"/>
		<path d="M129.2,287.5c8.9,0,14.4,7,14.4,15.1c0,8.1-5.5,15.1-14.4,15.1c-8.9,0-14.4-7-14.4-15.1
			C114.8,294.5,120.2,287.5,129.2,287.5z M129.2,313.3c6,0,9.4-5,9.4-10.7c0-5.6-3.4-10.7-9.4-10.7c-6,0-9.4,5-9.4,10.7
			C119.8,308.2,123.2,313.3,129.2,313.3z"/>
		<path d="M170.1,297.3c-0.4-3.4-2.1-5.3-5.6-5.3c-5.1,0-9.9,4.8-9.9,14.7v10.6h-4.9V288h4.9v5.4c2.3-3.5,5.9-5.9,10.8-5.9
			c5.8,0,9.3,3.5,9.6,9.8H170.1z"/>
	</g>
	<rect x="86.5" y="334.7" class="st2" width="345.3" height="89.4"/>
	<g>
		<path class="st11" d="M119.3,378.7h-6.8v19.2h-5.1v-40.6h14.2c7.2,0,12,3.5,12,10.7c0,6-3.2,9.3-8.5,10.4l12.1,19.5h-6
			L119.3,378.7z M112.5,362.1v11.7h9.2c4.2,0,6.6-1.8,6.6-5.9c0-4.1-2.3-5.9-6.6-5.9H112.5z"/>
		<path class="st11" d="M140,368.6h4.9v19.3c0,4.1,1.9,6,5.4,6c4.6,0,8.6-5,8.6-13.5v-11.8h4.9v29.3h-4.9v-5.4
			c-2.1,3.4-5.7,5.9-9.9,5.9c-6.1,0-8.9-3.7-8.9-9.3V368.6z"/>
		<path class="st11" d="M196.1,397.9h-4.9v-19.2c0-4.2-1.9-6.2-5.4-6.2c-4.6,0-9.3,4.7-9.3,13.1v12.2h-4.9v-41.1h4.9V374
			c2.1-3.1,6-5.9,10.6-5.9c6.3,0,8.9,3.7,8.9,9.5V397.9z"/>
		<path class="st11" d="M224.3,377.9c-0.4-3.4-2.1-5.3-5.6-5.3c-5.1,0-9.9,4.8-9.9,14.7v10.6h-4.9v-29.3h4.9v5.4
			c2.3-3.5,5.9-5.9,10.8-5.9c5.8,0,9.3,3.5,9.6,9.8H224.3z"/>
		<path class="st11" d="M246.6,368.1c2.1,0,4.1,0.6,5.7,1.5l6.1-3.1l2.2,4l-4.9,2.6c0.8,1.4,1.2,3,1.2,4.9c0,6.1-4.4,9.8-10.3,9.8
			c-2,0-3.8-0.4-5.4-1.2c-1.8,0.7-2.7,1.7-2.7,3c0,1.7,1.7,2.4,4.1,2.4h7.6c6.3,0,9.8,2.8,9.8,8.1c0,7.4-7,10.1-13.7,10.1
			c-8.4,0-13.5-3.2-13.5-9.6c0-2.7,1.3-4.9,3-6.3c-1.3-1-2.1-2.4-2.1-4.5c0-2.6,1.6-4.9,4.3-5.9c-1.2-1.6-1.8-3.6-1.8-6
			C236.3,371.9,240.8,368.1,246.6,368.1z M243.3,396.2c-1,0-2.1-0.1-3-0.2c-1.8,0.9-2.5,2.4-2.5,4.4c0,3.4,3.4,5.5,8.6,5.5
			c5.6,0,8.7-2,8.7-5.3c0-3.3-1.9-4.4-4.9-4.4H243.3z M246.6,383.6c3.1,0,5.6-2,5.6-5.6c0-3.7-2.5-5.6-5.6-5.6c-3,0-5.6,2-5.6,5.6
			C241.1,381.6,243.6,383.6,246.6,383.6z"/>
		<path class="st11" d="M291.7,384.3h-22.9c0.3,5.8,3.8,9.6,9,9.6c4.4,0,7.4-2.1,9.4-5.8l3.9,2c-3.2,6.2-7.8,8.2-13.3,8.2
			c-8.5,0-14-6.6-14-15.1c0-8.2,5.2-15.1,14-15.1c9.1,0,13.9,6.4,13.9,14.1V384.3z M269.1,379.9h17.4c-0.9-4.6-3.9-7.3-8.7-7.3
			C273.1,372.5,270.1,375.5,269.1,379.9z"/>
		<path class="st11" d="M310.3,398.3c-4,0-7.3-2.1-8.9-4.4v3.9h-4.9v-41.1h4.9v15.6c1.6-2.2,4.9-4.2,8.9-4.2
			c8.6,0,13.4,6.2,13.4,15.1C323.7,392.2,318.9,398.3,310.3,398.3z M309.9,372.5c-5.6,0-8.9,4.4-8.9,10.7c0,6.3,3.3,10.7,8.9,10.7
			c5.6,0,8.9-4.4,8.9-10.7C318.8,377,315.4,372.5,309.9,372.5z"/>
		<path class="st11" d="M329.5,368.6h13.8v25h10.8v4.3h-25.8v-4.3h10.1v-20.7h-8.9V368.6z M340.6,356.8c2.3,0,4,1.8,4,4.1
			c0,2.2-1.7,3.9-4,3.9c-2.2,0-4-1.7-4-3.9C336.6,358.6,338.4,356.8,340.6,356.8z"/>
		<path class="st11" d="M385.7,384.3h-22.9c0.3,5.8,3.8,9.6,9,9.6c4.4,0,7.4-2.1,9.4-5.8l3.9,2c-3.2,6.2-7.8,8.2-13.3,8.2
			c-8.5,0-14-6.6-14-15.1c0-8.2,5.2-15.1,14-15.1c9.1,0,13.9,6.4,13.9,14.1V384.3z M363.1,379.9h17.4c-0.9-4.6-3.9-7.3-8.7-7.3
			C367.1,372.5,364.1,375.5,363.1,379.9z"/>
		<path class="st11" d="M388.6,368.6h7.8v-8.8l4.9-3.1v11.8h14.3v4.4h-14.3v15c0,4.1,1.8,5.9,5,5.9c2.6,0,4.6-0.8,7.2-3.5l1.8,4.1
			c-2.7,2.7-5.3,3.8-9,3.8c-6.4,0-9.9-3.4-9.9-10.2V373h-7.8V368.6z"/>
	</g>
</g>
</svg>
