<svg id="Ebene_1" data-name="Ebene 1" xmlns="http://www.w3.org/2000/svg" viewBox="0 0 500 500"><defs><style>.cls-1{fill:#ff8282;}.cls-2{fill:#ff645f;}.cls-3{fill:#8cdba6;}.cls-4{fill:#21d68f;}.cls-5{fill:#00abfa;}.cls-6{fill:#bd3b38;}.cls-7{fill:#00b05c;}.cls-8{fill:#78ccc7;}.cls-9{fill:#96dbd6;}.cls-10{fill:#40a6a6;}.cls-11{fill:#fff;}</style></defs><title>logo-profil-04</title><polygon class="cls-1" points="165.63 126.92 165.63 129.24 165.63 275.88 177.9 275.88 181.32 275.88 184.25 275.88 184.25 126.92 165.63 126.92"/><path class="cls-2" d="M239.48,289.84c1.28,0,3-1.15,3-2.42V113c0-1.28-1.68-2.32-3-2.32H181.32c-1.28,0-1.73.52-1.73,1.16v15.12c0,1.28.45,2.34,1.73,2.34h39.54c1.28,0,3,1,3,2.31V268.81c0,1.28-1.67,2.42-3,2.42H181.32c-1.28,0-1.73.43-1.73,1.07v15.12c0,1.27.45,2.42,1.73,2.42h58.16Z"/><polygon class="cls-3" points="265.71 126.92 265.71 129.24 265.71 275.88 281.35 275.88 284.33 275.88 284.33 126.92 265.71 126.92"/><path class="cls-4" d="M282,289.74V271.13c25.6,0,43.47-31.82,43.47-70.94S307.61,129.24,282,129.24V110.63c34.91,0,62.08,40.18,62.08,89.56S316.92,289.74,282,289.74"/><path class="cls-5" d="M88.82,232.52v33.92c0,13.92,8.91,23.4,23,23.4h28.8a2.53,2.53,0,0,0,1.74-2.42v-14c0-1.27-1.62-2.24-2.91-2.24H115c-6,0-7.6-2.85-7.6-9.73V221.65c0-14-5.71-19.21-12.66-21.75,6.95-2.54,12.66-7.7,12.66-21.73V138c0-6.76,1.35-8.78,7.6-8.78h25.57a2.41,2.41,0,0,0,1.74-2.34V113c0-1.28-1.62-2.32-2.91-2.32H111.82c-14.08,0-23,9.12-23,22.74v37.74s-0.46,7-.8,9.36c-0.88,6.29-8.59,11.68-13.37,11.61H67.35c-1.28,0-1.79,1-1.79,2.28v14c0,1.28.52,2.39,1.79,2.39H74c6.09-.08,13.79,5,14.38,12.71,0.17,2.22.42,9.1,0.42,9.1"/><path class="cls-6" d="M181.32,110.63h-14c-1.28,0-1.74,1-1.74,2.32v16.3h18.63V110.63h-2.93Z"/><path class="cls-6" d="M165.63,273.46v14c0,1.27.46,2.42,1.74,2.42h16.88V271.22H165.63v2.24h0Z"/><path class="cls-7" d="M281.35,110.63h-14c-1.28,0-1.68,1-1.68,2.32v16.3h18.62V110.63h-3Z"/><path class="cls-7" d="M265.71,273.46v14c0,1.27.4,2.42,1.68,2.42h16.94V271.22H265.71v2.24Z"/><path class="cls-8" d="M378.92,232.52v33.92c0,13.92,8.74,23.4,22.82,23.4h28.8a2.66,2.66,0,0,0,1.91-2.42v-14c0-1.27-1.79-2.24-3.07-2.24H405c-6,0-7.43-2.56-7.43-9.44V221.65a28.2,28.2,0,0,0-2.36-10.94H363.95c8.58,2.33,12.25,5.4,14,12.88a52.15,52.15,0,0,1,1,8.94"/><path class="cls-8" d="M377.59,180.47c-1.8,6.1-5.82,9.3-13,11.62h29.31c1.82-4.65,3.64-7.76,3.64-13.92V138c0-6.76,1.18-8.78,7.43-8.78h25.58a2.54,2.54,0,0,0,1.91-2.34V113c0-1.28-1.79-2.33-3.07-2.33H401.74c-14.08,0-22.82,9.12-22.82,22.74v37.74a59.61,59.61,0,0,1-1.32,9.36"/><path class="cls-9" d="M382.13,201.54c4.71,1.73,9.88,4.51,13.06,9.17h34.19c1.28,0,3.07-1.1,3.07-2.38v-14c0-1.28-1.79-2.28-3.07-2.28H393.89c-2.33,4.66-7.87,8-11.77,9.46"/><path class="cls-10" d="M357.27,192.09c-1.28,0-1.63,1-1.63,2.28v14c0,1.28.35,2.38,1.63,2.38h37.91c-2.1-4.65-7.31-7.84-11-9.29a18.32,18.32,0,0,0,9.74-9.33H357.27Z"/><path d="M89,336.9a6.49,6.49,0,0,0-3.77-1.26c-2.23,0-3.45,1.4-3.45,4.42v1.54h9.13v3.54H81.74v19.93H77.83V345.14H71.22V341.6h6.61v-1.44c0-5.68,2.75-8.05,7.22-8.05a8.81,8.81,0,0,1,4.89,1.35Z"/><path d="M103.57,341.23c7.17,0,11.55,5.63,11.55,12.1s-4.38,12.1-11.55,12.1S92,359.8,92,353.33,96.4,341.23,103.57,341.23Zm0,20.67c4.79,0,7.54-4,7.54-8.57s-2.75-8.57-7.54-8.57S96,348.81,96,353.33,98.77,361.9,103.57,361.9Z"/><path d="M136.38,349c-0.33-2.7-1.72-4.28-4.52-4.28-4.1,0-8,3.86-8,11.83v8.47H120V341.6h3.91v4.33a9.9,9.9,0,0,1,8.66-4.7c4.66,0,7.45,2.79,7.73,7.82h-3.91Z"/><rect class="cls-2" x="155.43" y="314.42" width="277.02" height="71.68"/><path class="cls-11" d="M181.69,349.7h-5.45v15.36h-4.1V332.47h11.41c5.77,0,9.59,2.84,9.59,8.61,0,4.79-2.56,7.45-6.8,8.33l9.73,15.64h-4.84Zm-5.45-13.31v9.4h7.4c3.4,0,5.26-1.44,5.26-4.7s-1.86-4.7-5.26-4.7h-7.4Z"/><path class="cls-11" d="M198.35,341.6h3.91v15.5c0,3.26,1.54,4.79,4.33,4.79,3.68,0,6.89-4,6.89-10.85V341.6h3.91v23.46h-3.91v-4.33a9.56,9.56,0,0,1-8,4.7c-4.89,0-7.17-3-7.17-7.5V341.6Z"/><path class="cls-11" d="M243.32,365.06h-3.91V349.7c0-3.4-1.49-4.93-4.33-4.93-3.68,0-7.45,3.77-7.45,10.47v9.82h-3.91v-33h3.91v13.83a10.61,10.61,0,0,1,8.52-4.7c5,0,7.17,3,7.17,7.63v16.2Z"/><path class="cls-11" d="M265.94,349c-0.33-2.7-1.72-4.28-4.52-4.28-4.1,0-8,3.86-8,11.83v8.47h-3.91V341.6h3.91v4.33a9.9,9.9,0,0,1,8.66-4.7c4.66,0,7.45,2.79,7.73,7.82h-3.91Z"/><path class="cls-11" d="M283.86,341.23a9.31,9.31,0,0,1,4.61,1.21l4.89-2.51,1.77,3.21-4,2a7.62,7.62,0,0,1,1,3.91c0,4.89-3.54,7.87-8.29,7.87a9.27,9.27,0,0,1-4.33-1c-1.44.56-2.14,1.35-2.14,2.42,0,1.35,1.35,2,3.3,2h6.1c5,0,7.87,2.23,7.87,6.47,0,5.91-5.63,8.1-11,8.1-6.7,0-10.85-2.61-10.85-7.73a6.27,6.27,0,0,1,2.42-5,4.29,4.29,0,0,1-1.68-3.58,5,5,0,0,1,3.44-4.7,7.93,7.93,0,0,1-1.44-4.79C275.57,344.25,279.16,341.23,283.86,341.23Zm-2.7,22.49a13.45,13.45,0,0,1-2.42-.19,3.61,3.61,0,0,0-2,3.54c0,2.75,2.75,4.42,6.94,4.42,4.47,0,7-1.63,7-4.28s-1.49-3.49-4-3.49h-5.54Zm2.7-10.1a4.52,4.52,0,1,0-4.47-4.52A4.24,4.24,0,0,0,283.86,353.61Z"/><path class="cls-11" d="M320,354.17H301.64c0.23,4.66,3.07,7.73,7.22,7.73a8.09,8.09,0,0,0,7.54-4.66l3.12,1.63c-2.56,4.93-6.29,6.56-10.66,6.56-6.84,0-11.22-5.26-11.22-12.1,0-6.61,4.19-12.1,11.22-12.1,7.26,0,11.13,5.17,11.13,11.31v1.63Zm-18.06-3.54h13.92c-0.7-3.72-3.17-5.87-7-5.87S302.71,347.09,301.92,350.63Z"/><path class="cls-11" d="M335,365.43a9,9,0,0,1-7.17-3.49v3.12h-3.91v-33h3.91v12.48a9,9,0,0,1,7.17-3.35c6.89,0,10.75,4.93,10.75,12.1S341.86,365.43,335,365.43Zm-0.37-20.67c-4.47,0-7.12,3.54-7.12,8.57s2.65,8.57,7.12,8.57,7.12-3.54,7.12-8.57S339.07,344.76,334.6,344.76Z"/><path class="cls-11" d="M350.37,341.6h11.08v20h8.66v3.45H349.44v-3.45h8.1V345h-7.17V341.6Zm8.84-9.5a3.2,3.2,0,0,1,3.21,3.26,3.21,3.21,0,0,1-6.42,0A3.23,3.23,0,0,1,359.22,332.1Z"/><path class="cls-11" d="M395.39,354.17H377c0.23,4.66,3.07,7.73,7.22,7.73a8.09,8.09,0,0,0,7.54-4.66l3.12,1.63c-2.56,4.93-6.29,6.56-10.66,6.56-6.84,0-11.22-5.26-11.22-12.1,0-6.61,4.19-12.1,11.22-12.1,7.26,0,11.13,5.17,11.13,11.31v1.63Zm-18.06-3.54h13.92c-0.7-3.72-3.17-5.87-7-5.87S378.12,347.09,377.32,350.63Z"/><path class="cls-11" d="M397.71,341.6h6.24v-7l3.91-2.47v9.5h11.45v3.54H407.86v12c0,3.26,1.44,4.75,4,4.75,2,0,3.72-.65,5.77-2.79l1.44,3.31a9.37,9.37,0,0,1-7.22,3c-5.12,0-8-2.7-8-8.15V345.14h-6.24V341.6Z"/></svg>