<?xml version="1.0" encoding="utf-8"?>
<!-- Generator: Adobe Illustrator 19.2.0, SVG Export Plug-In . SVG Version: 6.00 Build 0)  -->
<svg version="1.1" id="Ebene_1" xmlns="http://www.w3.org/2000/svg" xmlns:xlink="http://www.w3.org/1999/xlink" x="0px" y="0px"
	 viewBox="0 0 1002.6 380" style="enable-background:new 0 0 1002.6 380;" xml:space="preserve">
<style type="text/css">
	.st0{fill:#1E1E1C;}
	.st1{fill:#FF8282;}
	.st2{fill:#FF645F;}
	.st3{fill:#8CDBA6;}
	.st4{fill:#21D68F;}
	.st5{fill:#00ABFA;}
	.st6{fill:#BD3B38;}
	.st7{fill:#00B05C;}
	.st8{fill:#78CCC7;}
	.st9{fill:#96DBD6;}
	.st10{fill:#40A6A6;}
	.st11{fill:#FFFFFF;}
	.st12{clip-path:url(#SVGID_2_);fill:#D6D7D7;}
	.st13{clip-path:url(#SVGID_4_);fill:#D6D7D7;}
	.st14{clip-path:url(#SVGID_6_);fill:#D6D7D7;}
	.st15{clip-path:url(#SVGID_8_);fill:#D6D7D7;}
	.st16{clip-path:url(#SVGID_10_);fill:#D6D7D7;}
	.st17{clip-path:url(#SVGID_12_);fill:#D6D7D7;}
	.st18{clip-path:url(#SVGID_14_);fill:#D6D7D7;}
	.st19{clip-path:url(#SVGID_16_);fill:#D6D7D7;}
	.st20{clip-path:url(#SVGID_18_);fill:#D6D7D7;}
	.st21{clip-path:url(#SVGID_20_);fill:#D6D7D7;}
	.st22{clip-path:url(#SVGID_22_);fill:#D6D7D7;}
	.st23{clip-path:url(#SVGID_24_);fill:#D6D7D7;}
	.st24{clip-path:url(#SVGID_26_);fill:#D6D7D7;}
	.st25{clip-path:url(#SVGID_28_);fill:#D6D7D7;}
	.st26{clip-path:url(#SVGID_30_);fill:#D6D7D7;}
	.st27{clip-path:url(#SVGID_32_);fill:#D6D7D7;}
	.st28{clip-path:url(#SVGID_34_);fill:#D6D7D7;}
	.st29{clip-path:url(#SVGID_36_);fill:#D6D7D7;}
	.st30{clip-path:url(#SVGID_38_);fill:#D6D7D7;}
	.st31{clip-path:url(#SVGID_40_);fill:#D6D7D7;}
	.st32{clip-path:url(#SVGID_42_);fill:#D6D7D7;}
	.st33{clip-path:url(#SVGID_44_);fill:#D6D7D7;}
	.st34{clip-path:url(#SVGID_46_);fill:#D6D7D7;}
	.st35{clip-path:url(#SVGID_48_);fill:#D6D7D7;}
	.st36{clip-path:url(#SVGID_50_);fill:#D6D7D7;}
	.st37{clip-path:url(#SVGID_52_);fill:#D6D7D7;}
	.st38{clip-path:url(#SVGID_54_);fill:#D6D7D7;}
	.st39{clip-path:url(#SVGID_56_);fill:#D6D7D7;}
	.st40{clip-path:url(#SVGID_58_);fill:#D6D7D7;}
	.st41{clip-path:url(#SVGID_60_);fill:#D6D7D7;}
	.st42{clip-path:url(#SVGID_62_);fill:#D6D7D7;}
	.st43{clip-path:url(#SVGID_64_);fill:#D6D7D7;}
	.st44{clip-path:url(#SVGID_66_);fill:#D6D7D7;}
	.st45{clip-path:url(#SVGID_68_);fill:#D6D7D7;}
	.st46{clip-path:url(#SVGID_70_);fill:#D6D7D7;}
	.st47{clip-path:url(#SVGID_72_);fill:#D6D7D7;}
	.st48{clip-path:url(#SVGID_74_);fill:#D6D7D7;}
	.st49{clip-path:url(#SVGID_76_);fill:#D6D7D7;}
	.st50{clip-path:url(#SVGID_78_);fill:#D6D7D7;}
	.st51{clip-path:url(#SVGID_80_);fill:#D6D7D7;}
	.st52{clip-path:url(#SVGID_82_);fill:#D6D7D7;}
	.st53{clip-path:url(#SVGID_84_);fill:#D6D7D7;}
	.st54{clip-path:url(#SVGID_86_);fill:#D6D7D7;}
	.st55{clip-path:url(#SVGID_88_);fill:#D6D7D7;}
	.st56{clip-path:url(#SVGID_90_);fill:#D6D7D7;}
	.st57{clip-path:url(#SVGID_92_);fill:#D6D7D7;}
	.st58{clip-path:url(#SVGID_94_);fill:#D6D7D7;}
	.st59{clip-path:url(#SVGID_96_);fill:#D6D7D7;}
	.st60{clip-path:url(#SVGID_98_);fill:#D6D7D7;}
	.st61{clip-path:url(#SVGID_100_);fill:#D6D7D7;}
	.st62{clip-path:url(#SVGID_102_);fill:#D6D7D7;}
	.st63{clip-path:url(#SVGID_104_);fill:#D6D7D7;}
	.st64{clip-path:url(#SVGID_106_);fill:#D6D7D7;}
	.st65{clip-path:url(#SVGID_108_);fill:#D6D7D7;}
	.st66{clip-path:url(#SVGID_110_);fill:#D6D7D7;}
	.st67{clip-path:url(#SVGID_112_);fill:#D6D7D7;}
	.st68{clip-path:url(#SVGID_114_);fill:#D6D7D7;}
	.st69{clip-path:url(#SVGID_116_);fill:#D6D7D7;}
	.st70{clip-path:url(#SVGID_118_);fill:#D6D7D7;}
	.st71{clip-path:url(#SVGID_120_);fill:#D6D7D7;}
	.st72{clip-path:url(#SVGID_122_);fill:#D6D7D7;}
	.st73{clip-path:url(#SVGID_124_);fill:#D6D7D7;}
	.st74{clip-path:url(#SVGID_126_);fill:#D6D7D7;}
	.st75{clip-path:url(#SVGID_128_);fill:#D6D7D7;}
	.st76{clip-path:url(#SVGID_130_);fill:#D6D7D7;}
	.st77{clip-path:url(#SVGID_132_);fill:#D6D7D7;}
	.st78{clip-path:url(#SVGID_134_);fill:#D6D7D7;}
	.st79{clip-path:url(#SVGID_136_);fill:#D6D7D7;}
	.st80{clip-path:url(#SVGID_138_);fill:#D6D7D7;}
	.st81{clip-path:url(#SVGID_140_);fill:#D6D7D7;}
	.st82{clip-path:url(#SVGID_142_);fill:#D6D7D7;}
	.st83{clip-path:url(#SVGID_144_);fill:#D6D7D7;}
	.st84{clip-path:url(#SVGID_146_);fill:#D6D7D7;}
	.st85{clip-path:url(#SVGID_148_);fill:#D6D7D7;}
	.st86{clip-path:url(#SVGID_150_);fill:#D6D7D7;}
	.st87{clip-path:url(#SVGID_152_);fill:#D6D7D7;}
	.st88{clip-path:url(#SVGID_154_);fill:#D6D7D7;}
	.st89{clip-path:url(#SVGID_156_);fill:#D6D7D7;}
	.st90{clip-path:url(#SVGID_158_);fill:#D6D7D7;}
	.st91{clip-path:url(#SVGID_160_);fill:#D6D7D7;}
	.st92{clip-path:url(#SVGID_162_);fill:#D6D7D7;}
	.st93{clip-path:url(#SVGID_164_);fill:#D6D7D7;}
	.st94{clip-path:url(#SVGID_166_);fill:#D6D7D7;}
	.st95{clip-path:url(#SVGID_168_);fill:#D6D7D7;}
	.st96{clip-path:url(#SVGID_170_);fill:#D6D7D7;}
	.st97{clip-path:url(#SVGID_172_);fill:#D6D7D7;}
	.st98{clip-path:url(#SVGID_174_);fill:#D6D7D7;}
	.st99{clip-path:url(#SVGID_176_);fill:#D6D7D7;}
	.st100{clip-path:url(#SVGID_178_);fill:#D6D7D7;}
	.st101{clip-path:url(#SVGID_180_);fill:#D6D7D7;}
	.st102{clip-path:url(#SVGID_182_);fill:#D6D7D7;}
	.st103{clip-path:url(#SVGID_184_);fill:#D6D7D7;}
	.st104{clip-path:url(#SVGID_186_);fill:#D6D7D7;}
	.st105{clip-path:url(#SVGID_188_);fill:#D6D7D7;}
	.st106{clip-path:url(#SVGID_190_);fill:#D6D7D7;}
	.st107{clip-path:url(#SVGID_192_);fill:#D6D7D7;}
	.st108{clip-path:url(#SVGID_194_);fill:#D6D7D7;}
	.st109{clip-path:url(#SVGID_196_);fill:#D6D7D7;}
	.st110{clip-path:url(#SVGID_198_);fill:#D6D7D7;}
	.st111{clip-path:url(#SVGID_200_);fill:#D6D7D7;}
	.st112{clip-path:url(#SVGID_202_);fill:#D6D7D7;}
	.st113{clip-path:url(#SVGID_204_);fill:#D6D7D7;}
	.st114{clip-path:url(#SVGID_206_);fill:#D6D7D7;}
	.st115{clip-path:url(#SVGID_208_);fill:#D6D7D7;}
	.st116{clip-path:url(#SVGID_210_);fill:#D6D7D7;}
	.st117{clip-path:url(#SVGID_212_);fill:#D6D7D7;}
	.st118{clip-path:url(#SVGID_214_);fill:#D6D7D7;}
	.st119{clip-path:url(#SVGID_216_);fill:#D6D7D7;}
	.st120{clip-path:url(#SVGID_218_);fill:#D6D7D7;}
	.st121{clip-path:url(#SVGID_220_);fill:#D6D7D7;}
	.st122{clip-path:url(#SVGID_222_);fill:#D6D7D7;}
	.st123{clip-path:url(#SVGID_224_);fill:#D6D7D7;}
	.st124{clip-path:url(#SVGID_226_);fill:#D6D7D7;}
	.st125{clip-path:url(#SVGID_228_);fill:#D6D7D7;}
	.st126{clip-path:url(#SVGID_230_);fill:#D6D7D7;}
	.st127{clip-path:url(#SVGID_232_);fill:#D6D7D7;}
	.st128{clip-path:url(#SVGID_234_);fill:#D6D7D7;}
	.st129{clip-path:url(#SVGID_236_);fill:#D6D7D7;}
	.st130{clip-path:url(#SVGID_238_);fill:#D6D7D7;}
	.st131{clip-path:url(#SVGID_240_);fill:#D6D7D7;}
	.st132{clip-path:url(#SVGID_242_);fill:#D6D7D7;}
	.st133{clip-path:url(#SVGID_244_);fill:#D6D7D7;}
	.st134{clip-path:url(#SVGID_246_);fill:#D6D7D7;}
	.st135{clip-path:url(#SVGID_248_);fill:#D6D7D7;}
	.st136{clip-path:url(#SVGID_250_);fill:#D6D7D7;}
	.st137{clip-path:url(#SVGID_252_);fill:#D6D7D7;}
	.st138{clip-path:url(#SVGID_254_);fill:#D6D7D7;}
	.st139{clip-path:url(#SVGID_256_);fill:#D6D7D7;}
	.st140{clip-path:url(#SVGID_258_);fill:#D6D7D7;}
	.st141{clip-path:url(#SVGID_260_);fill:#D6D7D7;}
	.st142{clip-path:url(#SVGID_262_);fill:#D6D7D7;}
	.st143{clip-path:url(#SVGID_264_);fill:#D6D7D7;}
	.st144{clip-path:url(#SVGID_266_);fill:#D6D7D7;}
	.st145{clip-path:url(#SVGID_268_);fill:#D6D7D7;}
	.st146{clip-path:url(#SVGID_270_);fill:#D6D7D7;}
	.st147{clip-path:url(#SVGID_272_);fill:#D6D7D7;}
	.st148{clip-path:url(#SVGID_274_);fill:#D6D7D7;}
	.st149{clip-path:url(#SVGID_276_);fill:#D6D7D7;}
	.st150{clip-path:url(#SVGID_278_);fill:#D6D7D7;}
	.st151{clip-path:url(#SVGID_280_);fill:#D6D7D7;}
	.st152{clip-path:url(#SVGID_282_);fill:#D6D7D7;}
	.st153{clip-path:url(#SVGID_284_);fill:#D6D7D7;}
	.st154{clip-path:url(#SVGID_286_);fill:#D6D7D7;}
	.st155{clip-path:url(#SVGID_288_);fill:#D6D7D7;}
	.st156{clip-path:url(#SVGID_290_);fill:#D6D7D7;}
	.st157{clip-path:url(#SVGID_292_);fill:#D6D7D7;}
	.st158{clip-path:url(#SVGID_294_);fill:#D6D7D7;}
	.st159{clip-path:url(#SVGID_296_);fill:#D6D7D7;}
	.st160{clip-path:url(#SVGID_298_);fill:#D6D7D7;}
	.st161{clip-path:url(#SVGID_300_);fill:#D6D7D7;}
	.st162{clip-path:url(#SVGID_302_);fill:#D6D7D7;}
	.st163{clip-path:url(#SVGID_304_);fill:#D6D7D7;}
	.st164{clip-path:url(#SVGID_306_);fill:#D6D7D7;}
	.st165{clip-path:url(#SVGID_308_);fill:#D6D7D7;}
	.st166{clip-path:url(#SVGID_310_);fill:#D6D7D7;}
	.st167{clip-path:url(#SVGID_312_);fill:#D6D7D7;}
	.st168{clip-path:url(#SVGID_314_);fill:#D6D7D7;}
	.st169{clip-path:url(#SVGID_316_);fill:#D6D7D7;}
	.st170{clip-path:url(#SVGID_318_);fill:#D6D7D7;}
	.st171{clip-path:url(#SVGID_320_);fill:#D6D7D7;}
	.st172{clip-path:url(#SVGID_322_);fill:#D6D7D7;}
	.st173{clip-path:url(#SVGID_324_);fill:#D6D7D7;}
	.st174{clip-path:url(#SVGID_326_);fill:#D6D7D7;}
	.st175{clip-path:url(#SVGID_328_);fill:#D6D7D7;}
	.st176{clip-path:url(#SVGID_330_);fill:#D6D7D7;}
	.st177{clip-path:url(#SVGID_332_);fill:#D6D7D7;}
	.st178{clip-path:url(#SVGID_334_);fill:#D6D7D7;}
	.st179{clip-path:url(#SVGID_336_);fill:#D6D7D7;}
	.st180{clip-path:url(#SVGID_338_);fill:#D6D7D7;}
	.st181{clip-path:url(#SVGID_340_);fill:#D6D7D7;}
	.st182{clip-path:url(#SVGID_342_);fill:#D6D7D7;}
	.st183{clip-path:url(#SVGID_344_);fill:#D6D7D7;}
	.st184{clip-path:url(#SVGID_346_);fill:#D6D7D7;}
	.st185{clip-path:url(#SVGID_348_);fill:#D6D7D7;}
	.st186{clip-path:url(#SVGID_350_);fill:#D6D7D7;}
	.st187{clip-path:url(#SVGID_352_);fill:#D6D7D7;}
	.st188{clip-path:url(#SVGID_354_);fill:#D6D7D7;}
	.st189{clip-path:url(#SVGID_356_);fill:#D6D7D7;}
	.st190{clip-path:url(#SVGID_358_);fill:#D6D7D7;}
	.st191{clip-path:url(#SVGID_360_);fill:#D6D7D7;}
	.st192{clip-path:url(#SVGID_362_);fill:#D6D7D7;}
	.st193{clip-path:url(#SVGID_364_);fill:#D6D7D7;}
	.st194{clip-path:url(#SVGID_366_);fill:#D6D7D7;}
	.st195{clip-path:url(#SVGID_368_);fill:#D6D7D7;}
	.st196{clip-path:url(#SVGID_370_);fill:#D6D7D7;}
	.st197{clip-path:url(#SVGID_372_);fill:#D6D7D7;}
	.st198{clip-path:url(#SVGID_374_);fill:#D6D7D7;}
	.st199{clip-path:url(#SVGID_376_);fill:#D6D7D7;}
	.st200{clip-path:url(#SVGID_378_);fill:#D6D7D7;}
	.st201{clip-path:url(#SVGID_380_);fill:#D6D7D7;}
	.st202{clip-path:url(#SVGID_382_);fill:#D6D7D7;}
	.st203{clip-path:url(#SVGID_384_);fill:#D6D7D7;}
	.st204{clip-path:url(#SVGID_386_);fill:#D6D7D7;}
	.st205{clip-path:url(#SVGID_388_);fill:#D6D7D7;}
	.st206{clip-path:url(#SVGID_390_);fill:#D6D7D7;}
	.st207{clip-path:url(#SVGID_392_);fill:#D6D7D7;}
	.st208{clip-path:url(#SVGID_394_);fill:#D6D7D7;}
	.st209{clip-path:url(#SVGID_396_);fill:#D6D7D7;}
	.st210{clip-path:url(#SVGID_398_);fill:#D6D7D7;}
	.st211{clip-path:url(#SVGID_400_);fill:#D6D7D7;}
	.st212{clip-path:url(#SVGID_402_);fill:#D6D7D7;}
	.st213{fill:#D6D7D7;}
	.st214{clip-path:url(#SVGID_404_);fill:#D6D7D7;}
	.st215{clip-path:url(#SVGID_406_);fill:#D6D7D7;}
	.st216{clip-path:url(#SVGID_408_);fill:#D6D7D7;}
	.st217{clip-path:url(#SVGID_410_);fill:#D6D7D7;}
	.st218{clip-path:url(#SVGID_412_);fill:#D6D7D7;}
	.st219{clip-path:url(#SVGID_414_);fill:#D6D7D7;}
	.st220{clip-path:url(#SVGID_416_);fill:#D6D7D7;}
	.st221{clip-path:url(#SVGID_418_);fill:#D6D7D7;}
	.st222{clip-path:url(#SVGID_420_);fill:#D6D7D7;}
	.st223{clip-path:url(#SVGID_422_);fill:#D6D7D7;}
	.st224{clip-path:url(#SVGID_424_);fill:#D6D7D7;}
	.st225{clip-path:url(#SVGID_426_);fill:#D6D7D7;}
	.st226{fill:none;}
	.st227{fill:#FFFFFF;stroke:#000000;stroke-width:5;stroke-miterlimit:10;}
	.st228{fill:#FFFFFF;stroke:#1A1A1A;stroke-width:5;stroke-miterlimit:10;}
	.st229{fill:#1A1A1A;stroke:#1A1A1A;stroke-width:5;stroke-miterlimit:10;}
	.st230{fill:#1A1A1A;}
</style>
<g>
	<polygon class="st1" points="171.7,116.2 171.7,118.5 171.7,265.1 184,265.1 187.4,265.1 190.3,265.1 190.3,116.2 	"/>
	<g>
		<path class="st2" d="M245.5,279.1c1.3,0,3-1.2,3-2.4V102.2c0-1.3-1.7-2.3-3-2.3h-58.2c-1.3,0-1.7,0.5-1.7,1.2v3.5v11.6
			c0,1.3,0.4,2.3,1.7,2.3h39.5c1.3,0,3,1,3,2.3V258c0,1.3-1.7,2.4-3,2.4h-39.5c-1.3,0-1.7,0.4-1.7,1.1v3.5v11.6
			c0,1.3,0.4,2.4,1.7,2.4L245.5,279.1L245.5,279.1z"/>
	</g>
	<polygon class="st3" points="271.8,116.2 271.8,118.5 271.8,265.1 287.4,265.1 290.4,265.1 290.4,116.2 	"/>
	<g>
		<path class="st4" d="M288.1,279v-18.6c25.6,0,43.5-31.8,43.5-70.9c0-39.1-17.9-70.9-43.5-70.9V99.9c34.9,0,62.1,40.2,62.1,89.6
			C350.2,238.8,323,279,288.1,279"/>
		<path class="st5" d="M94.9,221.7v25.7v8.3c0,13.9,8.9,23.4,23,23.4h4h11.4h13.4c0.6,0,1.7-1.2,1.7-2.4v-14c0-1.3-1.6-2.2-2.9-2.2
			h-13.4h-6.8h-4.2c-6,0-7.6-2.8-7.6-9.7v-11v-15.2v-13.6c0-14-5.7-19.2-12.7-21.7c6.9-2.5,12.7-7.7,12.7-21.7v-9.7v-24.6v-5.8
			c0-6.8,1.3-8.8,7.6-8.8h5.3h6.7h13.6c0.6,0,1.7-1.1,1.7-2.3v-14c0-1.3-1.6-2.3-2.9-2.3h-11.2h-10.6h-5.9c-14.1,0-23,9.1-23,22.7
			v7.3v30.4c0,0-0.5,7-0.8,9.4c-0.9,6.3-8.6,11.7-13.4,11.6h-7.3c-1.3,0-1.8,1-1.8,2.3v14c0,1.3,0.5,2.4,1.8,2.4h6.7
			c6.1-0.1,13.8,5,14.4,12.7C94.6,214.9,94.9,221.7,94.9,221.7"/>
		<path class="st6" d="M187.4,99.9h-6.6h-7.4c-1.3,0-1.7,1-1.7,2.3v4.3v9.7v2.3h1.7h14h2.9v-2.3v-14v-2.3H187.4z"/>
		<path class="st6" d="M171.7,262.7v6.6v7.4c0,1.3,0.5,2.4,1.7,2.4h4.3h9.7h2.9v-2.4v-14v-2.2h-2.9h-14h-1.7L171.7,262.7
			L171.7,262.7z"/>
		<path class="st7" d="M287.4,99.9h-6.6h-7.4c-1.3,0-1.7,1-1.7,2.3v4.3v9.7v2.3h1.7h14h3v-2.3v-14v-2.3H287.4z"/>
		<path class="st7" d="M271.8,262.7v6.6v7.4c0,1.3,0.4,2.4,1.7,2.4h4.3h9.7h3v-2.4v-14v-2.2h-3h-14h-1.7V262.7z"/>
		<path class="st8" d="M385,221.7v25.7v8.3c0,13.9,8.7,23.4,22.8,23.4h4h11.4h13.4c0.6,0,1.9-1.2,1.9-2.4v-14c0-1.3-1.8-2.2-3.1-2.2
			h-13.4h-6.8H411c-6,0-7.4-2.6-7.4-9.4v-4.1v-22.4v-13.6c0-4.5-1.3-8.6-2.4-10.9H370c8.6,2.3,12.2,5.4,14,12.9
			C384.9,216.5,385,221.7,385,221.7"/>
		<path class="st8" d="M383.7,169.7c-1.8,6.1-5.8,9.3-13,11.6H400c1.8-4.7,3.6-7.8,3.6-13.9v-9.7v-24.6v-5.8c0-6.8,1.2-8.8,7.4-8.8
			h5.3h6.7h13.7c0.6,0,1.9-1.1,1.9-2.3v-14c0-1.3-1.8-2.3-3.1-2.3h-11.2h-10.6h-5.9c-14.1,0-22.8,9.1-22.8,22.7v7.3v30.4
			C385,160.3,384.6,166.7,383.7,169.7"/>
		<path class="st9" d="M388.2,190.8c4.7,1.7,9.9,4.5,13.1,9.2h34.2c1.3,0,3.1-1.1,3.1-2.4v-14c0-1.3-1.8-2.3-3.1-2.3H400
			C397.6,186,392.1,189.4,388.2,190.8"/>
		<path class="st10" d="M363.3,181.3c-1.3,0-1.6,1-1.6,2.3v14c0,1.3,0.3,2.4,1.6,2.4h6.7h31.2c-2.1-4.7-7.3-7.8-11-9.3
			c3.9-1.4,7.4-4.7,9.7-9.3h-29.3L363.3,181.3L363.3,181.3z"/>
	</g>
</g>
<g>
	<path d="M532.3,110.4c-2.2-1.4-3.9-1.9-5.8-1.9c-3.4,0-5.3,2.2-5.3,6.8v2.4h14.1v5.5h-14.1v30.7h-6v-30.7H505v-5.5h10.2v-2.2
		c0-8.8,4.2-12.4,11.1-12.4c3.3,0,5.5,0.9,7.5,2.1L532.3,110.4z"/>
	<path d="M554.9,117.1c11.1,0,17.8,8.7,17.8,18.7c0,10-6.8,18.7-17.8,18.7c-11.1,0-17.8-8.7-17.8-18.7
		C537.1,125.8,543.8,117.1,554.9,117.1z M554.9,149c7.4,0,11.6-6.2,11.6-13.2c0-7-4.2-13.2-11.6-13.2c-7.4,0-11.6,6.2-11.6,13.2
		C543.3,142.7,547.5,149,554.9,149z"/>
	<path d="M605.5,129.2c-0.5-4.2-2.7-6.6-7-6.6c-6.3,0-12.3,6-12.3,18.2v13.1h-6v-36.2h6v6.7c2.8-4.4,7.3-7.3,13.4-7.3
		c7.2,0,11.5,4.3,11.9,12.1H605.5z"/>
</g>
<rect x="480.8" y="169.6" class="st2" width="427.3" height="110.6"/>
<g>
	<path class="st11" d="M521.3,224h-8.4v23.7h-6.3v-50.3h17.6c8.9,0,14.8,4.4,14.8,13.3c0,7.4-3.9,11.5-10.5,12.9l15,24.1H536
		L521.3,224z M512.9,203.5V218h11.4c5.2,0,8.1-2.2,8.1-7.3s-2.9-7.3-8.1-7.3H512.9z"/>
	<path class="st11" d="M547,211.5h6v23.9c0,5,2.4,7.4,6.7,7.4c5.7,0,10.6-6.2,10.6-16.7v-14.6h6v36.2h-6V241
		c-2.6,4.2-7.1,7.3-12.3,7.3c-7.5,0-11.1-4.6-11.1-11.6V211.5z"/>
	<path class="st11" d="M616.4,247.7h-6V224c0-5.2-2.3-7.6-6.7-7.6c-5.7,0-11.5,5.8-11.5,16.2v15.2h-6v-50.8h6v21.3
		c2.7-3.9,7.5-7.3,13.1-7.3c7.8,0,11.1,4.6,11.1,11.8V247.7z"/>
	<path class="st11" d="M651.3,223c-0.5-4.2-2.7-6.6-7-6.6c-6.3,0-12.3,6-12.3,18.2v13.1h-6v-36.2h6v6.7c2.8-4.4,7.3-7.3,13.4-7.3
		c7.2,0,11.5,4.3,11.9,12.1H651.3z"/>
	<path class="st11" d="M678.9,210.9c2.7,0,5.1,0.7,7.1,1.9l7.5-3.9l2.7,5l-6.1,3.2c1,1.7,1.5,3.7,1.5,6c0,7.5-5.5,12.1-12.8,12.1
		c-2.5,0-4.7-0.5-6.7-1.5c-2.2,0.9-3.3,2.1-3.3,3.7c0,2.1,2.1,3,5.1,3h9.4c7.8,0,12.1,3.4,12.1,10c0,9.1-8.7,12.5-16.9,12.5
		c-10.3,0-16.7-4-16.7-11.9c0-3.4,1.6-6.1,3.7-7.8c-1.6-1.2-2.6-3-2.6-5.5c0-3.2,1.9-6,5.3-7.3c-1.4-1.9-2.2-4.5-2.2-7.4
		C666.1,215.6,671.7,210.9,678.9,210.9z M674.7,245.6c-1.3,0-2.6-0.1-3.7-0.3c-2.2,1.1-3.1,3-3.1,5.5c0,4.2,4.2,6.8,10.7,6.8
		c6.9,0,10.8-2.5,10.8-6.6c0-4-2.3-5.4-6.1-5.4H674.7z M678.9,230c3.8,0,6.9-2.4,6.9-7c0-4.5-3.1-7-6.9-7c-3.7,0-6.9,2.4-6.9,7
		C672,227.6,675.2,230,678.9,230z"/>
	<path class="st11" d="M734.6,230.9h-28.3c0.4,7.2,4.7,11.9,11.1,11.9c5.5,0,9.2-2.7,11.6-7.2l4.8,2.5c-3.9,7.6-9.7,10.1-16.4,10.1
		c-10.6,0-17.3-8.1-17.3-18.7c0-10.2,6.5-18.7,17.3-18.7c11.2,0,17.2,8,17.2,17.5V230.9z M706.8,225.4h21.5c-1.1-5.7-4.9-9-10.8-9
		C711.6,216.4,708,220,706.8,225.4z"/>
	<path class="st11" d="M757.7,248.3c-5,0-9-2.6-11.1-5.4v4.8h-6v-50.8h6v19.2c2-2.7,6-5.2,11.1-5.2c10.6,0,16.6,7.6,16.6,18.7
		C774.3,240.7,768.4,248.3,757.7,248.3z M757.2,216.4c-6.9,0-11,5.5-11,13.2c0,7.8,4.1,13.2,11,13.2c6.9,0,11-5.5,11-13.2
		C768.2,221.8,764.1,216.4,757.2,216.4z"/>
	<path class="st11" d="M781.5,211.5h17.1v30.9H812v5.3h-31.9v-5.3h12.5v-25.6h-11.1V211.5z M795.2,196.8c2.8,0,5,2.2,5,5
		c0,2.7-2.2,4.9-5,4.9c-2.7,0-5-2.2-5-4.9C790.2,199.1,792.4,196.8,795.2,196.8z"/>
	<path class="st11" d="M850.9,230.9h-28.3c0.4,7.2,4.7,11.9,11.1,11.9c5.5,0,9.2-2.7,11.6-7.2l4.8,2.5c-3.9,7.6-9.7,10.1-16.4,10.1
		c-10.6,0-17.3-8.1-17.3-18.7c0-10.2,6.5-18.7,17.3-18.7c11.2,0,17.2,8,17.2,17.5V230.9z M823.1,225.4h21.5c-1.1-5.7-4.9-9-10.8-9
		C828,216.4,824.3,220,823.1,225.4z"/>
	<path class="st11" d="M854.5,211.5h9.6v-10.8l6-3.8v14.7h17.7v5.5h-17.7v18.5c0,5,2.2,7.3,6.2,7.3c3.2,0,5.7-1,8.9-4.3l2.2,5.1
		c-3.3,3.3-6.6,4.7-11.1,4.7c-7.9,0-12.3-4.2-12.3-12.6V217h-9.6V211.5z"/>
</g>
</svg>
